<mxfile host="Electron" modified="2023-05-09T14:39:17.362Z" agent="Mozilla/5.0 (X11; Linux x86_64) AppleWebKit/537.36 (KHTML, like Gecko) draw.io/21.1.2 Chrome/106.0.5249.199 Electron/21.4.3 Safari/537.36" etag="40_yGZfI2WNspTnemlLp" version="21.1.2" type="device">
  <diagram name="페이지-1" id="qJgsSUgqb1jlQC-jZucj">
    <mxGraphModel dx="1117" dy="1031" grid="1" gridSize="10" guides="1" tooltips="1" connect="1" arrows="1" fold="1" page="1" pageScale="1" pageWidth="850" pageHeight="1100" math="0" shadow="0">
      <root>
        <mxCell id="0" />
        <mxCell id="1" parent="0" />
        <mxCell id="gcWZ-dBk5Qpi9zZrwHY9-1" value="" style="rounded=1;whiteSpace=wrap;html=1;fillColor=none;" vertex="1" parent="1">
          <mxGeometry x="140" y="400" width="400" height="300" as="geometry" />
        </mxCell>
        <mxCell id="UNXM5yMI1ZM7ZV7I5fsq-16" value="" style="endArrow=classic;html=1;rounded=0;entryX=0;entryY=0.5;entryDx=0;entryDy=0;" parent="1" target="UNXM5yMI1ZM7ZV7I5fsq-17" edge="1">
          <mxGeometry width="50" height="50" relative="1" as="geometry">
            <mxPoint x="90" y="540" as="sourcePoint" />
            <mxPoint x="175" y="540" as="targetPoint" />
          </mxGeometry>
        </mxCell>
        <mxCell id="UNXM5yMI1ZM7ZV7I5fsq-17" value="Orchestrator" style="rounded=1;whiteSpace=wrap;html=1;fontSize=15;" parent="1" vertex="1">
          <mxGeometry x="160" y="510" width="120" height="60" as="geometry" />
        </mxCell>
        <mxCell id="SKWY_q-Q1LM-eMBOjH63-1" value="Queue" style="strokeWidth=2;html=1;shape=mxgraph.flowchart.direct_data;whiteSpace=wrap;fontSize=15;" parent="1" vertex="1">
          <mxGeometry x="600" y="510" width="100" height="60" as="geometry" />
        </mxCell>
        <mxCell id="SKWY_q-Q1LM-eMBOjH63-3" value="" style="endArrow=classic;html=1;rounded=0;" parent="1" edge="1">
          <mxGeometry width="50" height="50" relative="1" as="geometry">
            <mxPoint x="690" y="540" as="sourcePoint" />
            <mxPoint x="760" y="540" as="targetPoint" />
          </mxGeometry>
        </mxCell>
        <mxCell id="gcWZ-dBk5Qpi9zZrwHY9-24" value="" style="group" vertex="1" connectable="0" parent="1">
          <mxGeometry x="330" y="420" width="190" height="80" as="geometry" />
        </mxCell>
        <mxCell id="gcWZ-dBk5Qpi9zZrwHY9-23" value="" style="rounded=1;whiteSpace=wrap;html=1;fillColor=none;" vertex="1" parent="gcWZ-dBk5Qpi9zZrwHY9-24">
          <mxGeometry width="190" height="80" as="geometry" />
        </mxCell>
        <mxCell id="gcWZ-dBk5Qpi9zZrwHY9-11" value="Task" style="whiteSpace=wrap;html=1;" vertex="1" parent="gcWZ-dBk5Qpi9zZrwHY9-24">
          <mxGeometry x="10" y="30" width="40" height="20" as="geometry" />
        </mxCell>
        <mxCell id="gcWZ-dBk5Qpi9zZrwHY9-12" value="Task" style="whiteSpace=wrap;html=1;" vertex="1" parent="gcWZ-dBk5Qpi9zZrwHY9-24">
          <mxGeometry x="75" y="10" width="40" height="20" as="geometry" />
        </mxCell>
        <mxCell id="gcWZ-dBk5Qpi9zZrwHY9-16" value="" style="endArrow=classic;html=1;rounded=0;entryX=0;entryY=0.5;entryDx=0;entryDy=0;exitX=1;exitY=0.5;exitDx=0;exitDy=0;" edge="1" parent="gcWZ-dBk5Qpi9zZrwHY9-24" source="gcWZ-dBk5Qpi9zZrwHY9-11" target="gcWZ-dBk5Qpi9zZrwHY9-12">
          <mxGeometry width="50" height="50" relative="1" as="geometry">
            <mxPoint x="-85" y="430" as="sourcePoint" />
            <mxPoint x="-35" y="380" as="targetPoint" />
          </mxGeometry>
        </mxCell>
        <mxCell id="gcWZ-dBk5Qpi9zZrwHY9-17" value="Task" style="whiteSpace=wrap;html=1;" vertex="1" parent="gcWZ-dBk5Qpi9zZrwHY9-24">
          <mxGeometry x="75" y="50" width="40" height="20" as="geometry" />
        </mxCell>
        <mxCell id="gcWZ-dBk5Qpi9zZrwHY9-18" value="" style="endArrow=classic;html=1;rounded=0;entryX=0;entryY=0.5;entryDx=0;entryDy=0;exitX=1;exitY=0.5;exitDx=0;exitDy=0;" edge="1" parent="gcWZ-dBk5Qpi9zZrwHY9-24" source="gcWZ-dBk5Qpi9zZrwHY9-11" target="gcWZ-dBk5Qpi9zZrwHY9-17">
          <mxGeometry width="50" height="50" relative="1" as="geometry">
            <mxPoint x="45" y="50" as="sourcePoint" />
            <mxPoint x="85" y="30" as="targetPoint" />
          </mxGeometry>
        </mxCell>
        <mxCell id="gcWZ-dBk5Qpi9zZrwHY9-19" value="Task" style="whiteSpace=wrap;html=1;" vertex="1" parent="gcWZ-dBk5Qpi9zZrwHY9-24">
          <mxGeometry x="140" y="30" width="40" height="20" as="geometry" />
        </mxCell>
        <mxCell id="gcWZ-dBk5Qpi9zZrwHY9-21" value="" style="endArrow=classic;html=1;rounded=0;entryX=0;entryY=0.5;entryDx=0;entryDy=0;exitX=1;exitY=0.5;exitDx=0;exitDy=0;" edge="1" parent="gcWZ-dBk5Qpi9zZrwHY9-24" source="gcWZ-dBk5Qpi9zZrwHY9-17" target="gcWZ-dBk5Qpi9zZrwHY9-19">
          <mxGeometry width="50" height="50" relative="1" as="geometry">
            <mxPoint x="50" y="50" as="sourcePoint" />
            <mxPoint x="85" y="70" as="targetPoint" />
          </mxGeometry>
        </mxCell>
        <mxCell id="gcWZ-dBk5Qpi9zZrwHY9-22" value="" style="endArrow=classic;html=1;rounded=0;entryX=0;entryY=0.5;entryDx=0;entryDy=0;exitX=1;exitY=0.5;exitDx=0;exitDy=0;" edge="1" parent="gcWZ-dBk5Qpi9zZrwHY9-24" source="gcWZ-dBk5Qpi9zZrwHY9-12" target="gcWZ-dBk5Qpi9zZrwHY9-19">
          <mxGeometry width="50" height="50" relative="1" as="geometry">
            <mxPoint x="125" y="70" as="sourcePoint" />
            <mxPoint x="155" y="50" as="targetPoint" />
          </mxGeometry>
        </mxCell>
        <mxCell id="gcWZ-dBk5Qpi9zZrwHY9-25" value="" style="group" vertex="1" connectable="0" parent="1">
          <mxGeometry x="330" y="510" width="190" height="80" as="geometry" />
        </mxCell>
        <mxCell id="gcWZ-dBk5Qpi9zZrwHY9-26" value="" style="rounded=1;whiteSpace=wrap;html=1;fillColor=none;" vertex="1" parent="gcWZ-dBk5Qpi9zZrwHY9-25">
          <mxGeometry width="190" height="80" as="geometry" />
        </mxCell>
        <mxCell id="gcWZ-dBk5Qpi9zZrwHY9-27" value="Task" style="whiteSpace=wrap;html=1;" vertex="1" parent="gcWZ-dBk5Qpi9zZrwHY9-25">
          <mxGeometry x="10" y="30" width="40" height="20" as="geometry" />
        </mxCell>
        <mxCell id="gcWZ-dBk5Qpi9zZrwHY9-28" value="Task" style="whiteSpace=wrap;html=1;" vertex="1" parent="gcWZ-dBk5Qpi9zZrwHY9-25">
          <mxGeometry x="75" y="10" width="40" height="20" as="geometry" />
        </mxCell>
        <mxCell id="gcWZ-dBk5Qpi9zZrwHY9-29" value="" style="endArrow=classic;html=1;rounded=0;entryX=0;entryY=0.5;entryDx=0;entryDy=0;exitX=1;exitY=0.5;exitDx=0;exitDy=0;" edge="1" parent="gcWZ-dBk5Qpi9zZrwHY9-25" source="gcWZ-dBk5Qpi9zZrwHY9-27" target="gcWZ-dBk5Qpi9zZrwHY9-28">
          <mxGeometry width="50" height="50" relative="1" as="geometry">
            <mxPoint x="-85" y="430" as="sourcePoint" />
            <mxPoint x="-35" y="380" as="targetPoint" />
          </mxGeometry>
        </mxCell>
        <mxCell id="gcWZ-dBk5Qpi9zZrwHY9-30" value="Task" style="whiteSpace=wrap;html=1;" vertex="1" parent="gcWZ-dBk5Qpi9zZrwHY9-25">
          <mxGeometry x="75" y="50" width="40" height="20" as="geometry" />
        </mxCell>
        <mxCell id="gcWZ-dBk5Qpi9zZrwHY9-31" value="" style="endArrow=classic;html=1;rounded=0;entryX=0;entryY=0.5;entryDx=0;entryDy=0;exitX=1;exitY=0.5;exitDx=0;exitDy=0;" edge="1" parent="gcWZ-dBk5Qpi9zZrwHY9-25" source="gcWZ-dBk5Qpi9zZrwHY9-27" target="gcWZ-dBk5Qpi9zZrwHY9-30">
          <mxGeometry width="50" height="50" relative="1" as="geometry">
            <mxPoint x="45" y="50" as="sourcePoint" />
            <mxPoint x="85" y="30" as="targetPoint" />
          </mxGeometry>
        </mxCell>
        <mxCell id="gcWZ-dBk5Qpi9zZrwHY9-32" value="Task" style="whiteSpace=wrap;html=1;" vertex="1" parent="gcWZ-dBk5Qpi9zZrwHY9-25">
          <mxGeometry x="140" y="30" width="40" height="20" as="geometry" />
        </mxCell>
        <mxCell id="gcWZ-dBk5Qpi9zZrwHY9-33" value="" style="endArrow=classic;html=1;rounded=0;entryX=0;entryY=0.5;entryDx=0;entryDy=0;exitX=1;exitY=0.5;exitDx=0;exitDy=0;" edge="1" parent="gcWZ-dBk5Qpi9zZrwHY9-25" source="gcWZ-dBk5Qpi9zZrwHY9-30" target="gcWZ-dBk5Qpi9zZrwHY9-32">
          <mxGeometry width="50" height="50" relative="1" as="geometry">
            <mxPoint x="50" y="50" as="sourcePoint" />
            <mxPoint x="85" y="70" as="targetPoint" />
          </mxGeometry>
        </mxCell>
        <mxCell id="gcWZ-dBk5Qpi9zZrwHY9-34" value="" style="endArrow=classic;html=1;rounded=0;entryX=0;entryY=0.5;entryDx=0;entryDy=0;exitX=1;exitY=0.5;exitDx=0;exitDy=0;" edge="1" parent="gcWZ-dBk5Qpi9zZrwHY9-25" source="gcWZ-dBk5Qpi9zZrwHY9-28" target="gcWZ-dBk5Qpi9zZrwHY9-32">
          <mxGeometry width="50" height="50" relative="1" as="geometry">
            <mxPoint x="125" y="70" as="sourcePoint" />
            <mxPoint x="155" y="50" as="targetPoint" />
          </mxGeometry>
        </mxCell>
        <mxCell id="gcWZ-dBk5Qpi9zZrwHY9-35" value="" style="group" vertex="1" connectable="0" parent="1">
          <mxGeometry x="330" y="600" width="190" height="80" as="geometry" />
        </mxCell>
        <mxCell id="gcWZ-dBk5Qpi9zZrwHY9-36" value="" style="rounded=1;whiteSpace=wrap;html=1;fillColor=none;" vertex="1" parent="gcWZ-dBk5Qpi9zZrwHY9-35">
          <mxGeometry width="190" height="80" as="geometry" />
        </mxCell>
        <mxCell id="gcWZ-dBk5Qpi9zZrwHY9-37" value="Task" style="whiteSpace=wrap;html=1;" vertex="1" parent="gcWZ-dBk5Qpi9zZrwHY9-35">
          <mxGeometry x="10" y="30" width="40" height="20" as="geometry" />
        </mxCell>
        <mxCell id="gcWZ-dBk5Qpi9zZrwHY9-38" value="Task" style="whiteSpace=wrap;html=1;" vertex="1" parent="gcWZ-dBk5Qpi9zZrwHY9-35">
          <mxGeometry x="75" y="10" width="40" height="20" as="geometry" />
        </mxCell>
        <mxCell id="gcWZ-dBk5Qpi9zZrwHY9-39" value="" style="endArrow=classic;html=1;rounded=0;entryX=0;entryY=0.5;entryDx=0;entryDy=0;exitX=1;exitY=0.5;exitDx=0;exitDy=0;" edge="1" parent="gcWZ-dBk5Qpi9zZrwHY9-35" source="gcWZ-dBk5Qpi9zZrwHY9-37" target="gcWZ-dBk5Qpi9zZrwHY9-38">
          <mxGeometry width="50" height="50" relative="1" as="geometry">
            <mxPoint x="-85" y="430" as="sourcePoint" />
            <mxPoint x="-35" y="380" as="targetPoint" />
          </mxGeometry>
        </mxCell>
        <mxCell id="gcWZ-dBk5Qpi9zZrwHY9-40" value="Task" style="whiteSpace=wrap;html=1;" vertex="1" parent="gcWZ-dBk5Qpi9zZrwHY9-35">
          <mxGeometry x="75" y="50" width="40" height="20" as="geometry" />
        </mxCell>
        <mxCell id="gcWZ-dBk5Qpi9zZrwHY9-41" value="" style="endArrow=classic;html=1;rounded=0;entryX=0;entryY=0.5;entryDx=0;entryDy=0;exitX=1;exitY=0.5;exitDx=0;exitDy=0;" edge="1" parent="gcWZ-dBk5Qpi9zZrwHY9-35" source="gcWZ-dBk5Qpi9zZrwHY9-37" target="gcWZ-dBk5Qpi9zZrwHY9-40">
          <mxGeometry width="50" height="50" relative="1" as="geometry">
            <mxPoint x="45" y="50" as="sourcePoint" />
            <mxPoint x="85" y="30" as="targetPoint" />
          </mxGeometry>
        </mxCell>
        <mxCell id="gcWZ-dBk5Qpi9zZrwHY9-42" value="Task" style="whiteSpace=wrap;html=1;" vertex="1" parent="gcWZ-dBk5Qpi9zZrwHY9-35">
          <mxGeometry x="140" y="30" width="40" height="20" as="geometry" />
        </mxCell>
        <mxCell id="gcWZ-dBk5Qpi9zZrwHY9-43" value="" style="endArrow=classic;html=1;rounded=0;entryX=0;entryY=0.5;entryDx=0;entryDy=0;exitX=1;exitY=0.5;exitDx=0;exitDy=0;" edge="1" parent="gcWZ-dBk5Qpi9zZrwHY9-35" source="gcWZ-dBk5Qpi9zZrwHY9-40" target="gcWZ-dBk5Qpi9zZrwHY9-42">
          <mxGeometry width="50" height="50" relative="1" as="geometry">
            <mxPoint x="50" y="50" as="sourcePoint" />
            <mxPoint x="85" y="70" as="targetPoint" />
          </mxGeometry>
        </mxCell>
        <mxCell id="gcWZ-dBk5Qpi9zZrwHY9-44" value="" style="endArrow=classic;html=1;rounded=0;entryX=0;entryY=0.5;entryDx=0;entryDy=0;exitX=1;exitY=0.5;exitDx=0;exitDy=0;" edge="1" parent="gcWZ-dBk5Qpi9zZrwHY9-35" source="gcWZ-dBk5Qpi9zZrwHY9-38" target="gcWZ-dBk5Qpi9zZrwHY9-42">
          <mxGeometry width="50" height="50" relative="1" as="geometry">
            <mxPoint x="125" y="70" as="sourcePoint" />
            <mxPoint x="155" y="50" as="targetPoint" />
          </mxGeometry>
        </mxCell>
        <mxCell id="gcWZ-dBk5Qpi9zZrwHY9-45" value="" style="endArrow=classic;html=1;rounded=0;entryX=0;entryY=0.5;entryDx=0;entryDy=0;exitX=1;exitY=0.5;exitDx=0;exitDy=0;" edge="1" parent="1" source="UNXM5yMI1ZM7ZV7I5fsq-17" target="gcWZ-dBk5Qpi9zZrwHY9-23">
          <mxGeometry width="50" height="50" relative="1" as="geometry">
            <mxPoint x="100" y="550" as="sourcePoint" />
            <mxPoint x="170" y="550" as="targetPoint" />
          </mxGeometry>
        </mxCell>
        <mxCell id="gcWZ-dBk5Qpi9zZrwHY9-46" value="" style="endArrow=classic;html=1;rounded=0;exitX=1;exitY=0.5;exitDx=0;exitDy=0;entryX=0;entryY=0.5;entryDx=0;entryDy=0;entryPerimeter=0;" edge="1" parent="1" source="gcWZ-dBk5Qpi9zZrwHY9-23" target="SKWY_q-Q1LM-eMBOjH63-1">
          <mxGeometry width="50" height="50" relative="1" as="geometry">
            <mxPoint x="290" y="550" as="sourcePoint" />
            <mxPoint x="340" y="470" as="targetPoint" />
          </mxGeometry>
        </mxCell>
      </root>
    </mxGraphModel>
  </diagram>
</mxfile>
